<?xml version="1.0" encoding="utf-8"?>
<!-- Generator: Adobe Illustrator 15.0.2, SVG Export Plug-In . SVG Version: 6.00 Build 0)  -->
<!DOCTYPE svg PUBLIC "-//W3C//DTD SVG 1.1//EN" "http://www.w3.org/Graphics/SVG/1.1/DTD/svg11.dtd">
<svg version="1.1" id="Layer_1" xmlns="http://www.w3.org/2000/svg" xmlns:xlink="http://www.w3.org/1999/xlink" x="0px" y="0px"
	 width="1024px" height="1024px" viewBox="0 0 1024 1024" enable-background="new 0 0 1024 1024" xml:space="preserve">
<rect x="124.023" y="128.5" fill="#FFFFFF" width="788.5" height="788.531"/>
<g>
	<path fill="#3460A0" d="M621.273,512.188h-71.75V768H443.211V512.188h-50.562v-90.375h50.562v-58.5
		C443.211,321.5,463.086,256,550.492,256l78.75,0.312v87.75h-57.156c-9.312,0-22.562,4.656-22.562,24.594v53.156h81.062
		L621.273,512.188z M863.586,0h-704c-88.375,0-160,71.688-160,160v704c0,88.375,71.625,160,160,160h704c88.375,0,160-71.625,160-160
		V160C1023.586,71.688,951.961,0,863.586,0"/>
</g>
</svg>
